<svg width="554" height="541" viewBox="0 0 554 541" fill="none" xmlns="http://www.w3.org/2000/svg">
<g clip-path="url(#clip0_81_10)" filter="url(#filter0_d_81_10)">
<path d="M344.737 137.789H318.481V361.635C318.481 365.147 317.79 368.625 316.446 371.87C315.102 375.114 313.132 378.063 310.648 380.546C308.165 383.03 305.216 384.999 301.972 386.344C298.727 387.688 295.249 388.379 291.737 388.379H91V388.635C91 392.147 91.6918 395.625 93.0358 398.87C94.3798 402.114 96.3497 405.063 98.8332 407.546C101.317 410.03 104.265 411.999 107.51 413.344C110.754 414.688 114.232 415.379 117.744 415.379H344.737C348.249 415.379 351.727 414.688 354.972 413.344C358.216 411.999 361.165 410.03 363.648 407.546C366.131 405.063 368.101 402.114 369.445 398.87C370.789 395.625 371.481 392.147 371.481 388.635V164.533C371.481 157.44 368.664 150.637 363.648 145.622C358.633 140.606 351.83 137.789 344.737 137.789Z" fill="#F2F2F2"/>
<path d="M469.202 493.515C469.667 493.537 470.127 493.415 470.52 493.166C470.913 492.917 471.221 492.553 471.4 492.124C471.58 491.694 471.623 491.22 471.524 490.766C471.425 490.311 471.189 489.898 470.847 489.582L470.691 488.964C470.712 488.914 470.732 488.865 470.753 488.815C471.221 487.709 472.006 486.766 473.009 486.105C474.011 485.443 475.187 485.093 476.388 485.097C477.589 485.102 478.762 485.461 479.759 486.13C480.757 486.799 481.535 487.748 481.995 488.857C483.833 493.285 486.174 497.721 486.75 502.403C487.004 504.473 486.897 506.571 486.434 508.604C490.752 499.184 492.995 488.945 493.009 478.583C493.01 475.982 492.866 473.384 492.576 470.8C492.337 468.681 492.006 466.578 491.582 464.49C489.267 453.158 484.298 442.538 477.082 433.5C473.589 431.594 470.764 428.664 468.989 425.103C468.345 423.824 467.891 422.457 467.639 421.047C468.033 421.099 469.124 415.099 468.827 414.73C469.376 413.897 470.359 413.483 470.958 412.67C473.941 408.627 478.05 409.333 480.195 414.827C484.777 417.14 484.821 420.975 482.01 424.664C480.221 427.011 479.975 430.186 478.406 432.699C478.567 432.906 478.735 433.106 478.896 433.313C481.848 437.108 484.421 441.184 486.577 445.481C486.053 440.667 486.679 435.797 488.404 431.272C490.152 427.054 493.429 423.502 496.314 419.857C497.077 418.877 498.114 418.146 499.293 417.756C500.471 417.365 501.739 417.333 502.936 417.663C504.133 417.993 505.205 418.67 506.017 419.61C506.829 420.549 507.345 421.708 507.498 422.94C507.504 422.994 507.51 423.047 507.516 423.101C507.087 423.343 506.667 423.6 506.257 423.871C505.741 424.216 505.342 424.708 505.111 425.283C504.879 425.859 504.828 426.491 504.962 427.096C505.096 427.702 505.41 428.253 505.862 428.677C506.315 429.101 506.885 429.378 507.498 429.473L507.561 429.482C507.408 431.027 507.138 432.558 506.753 434.062C510.455 448.378 502.463 453.592 491.052 453.826C490.8 453.955 490.555 454.084 490.303 454.207C492.47 460.348 493.829 466.744 494.346 473.235C494.639 477.064 494.622 480.911 494.294 484.738L494.314 484.602C495.14 480.347 497.41 476.508 500.74 473.732C505.686 469.67 512.673 468.173 518.009 464.908C518.576 464.544 519.235 464.349 519.909 464.348C520.583 464.346 521.243 464.537 521.812 464.899C522.38 465.26 522.834 465.776 523.119 466.387C523.404 466.998 523.508 467.677 523.42 468.345L523.398 468.488C522.603 468.812 521.828 469.185 521.079 469.605C520.651 469.847 520.231 470.103 519.821 470.375C519.305 470.719 518.905 471.212 518.674 471.787C518.443 472.363 518.391 472.995 518.525 473.6C518.659 474.206 518.973 474.757 519.426 475.181C519.879 475.605 520.449 475.882 521.062 475.977L521.124 475.986C521.17 475.993 521.208 475.999 521.254 476.006C519.895 479.251 517.987 482.237 515.615 484.835C513.3 497.332 503.359 498.518 492.725 494.878H492.718C491.552 499.949 489.861 504.884 487.674 509.605H469.654C469.589 509.404 469.531 509.198 469.473 508.997C471.141 509.102 472.815 509.003 474.459 508.701C473.122 507.06 471.785 505.406 470.448 503.766C470.418 503.735 470.39 503.703 470.364 503.669C469.686 502.829 469.001 501.996 468.323 501.157L468.323 501.156C468.287 498.582 468.583 496.014 469.202 493.515Z" fill="#F2F2F2"/>
<path d="M270.724 107.339C271.382 108.336 272.249 109.178 273.264 109.807C274.28 110.436 275.419 110.837 276.605 110.982C277.79 111.127 278.993 111.013 280.13 110.648C281.267 110.282 282.311 109.674 283.19 108.865L320.655 125.768L327.878 116.555L283.234 96.8044C281.763 95.4262 279.837 94.6356 277.822 94.5824C275.806 94.5292 273.842 95.2171 272.3 96.5157C270.758 97.8142 269.746 99.6333 269.456 101.628C269.165 103.623 269.617 105.655 270.724 107.339Z" fill="#A0616A"/>
<path d="M431.508 117.879L435.224 138.936C435.397 139.918 435.363 140.926 435.124 141.894C434.885 142.862 434.446 143.77 433.835 144.559C433.225 145.348 432.456 146 431.578 146.474C430.7 146.948 429.733 147.233 428.739 147.312L365.6 152.277L291.383 119.061L300.248 102.234L364.675 122.636L431.508 117.879Z" fill="#F9A826"/>
<path d="M283.737 102.789H56.7441C41.9737 102.789 30 114.763 30 129.533V353.635C30 368.406 41.9737 380.379 56.7441 380.379H283.737C298.508 380.379 310.481 368.406 310.481 353.635V129.533C310.481 114.763 298.508 102.789 283.737 102.789Z" fill="#F2F2F2"/>
<path d="M56.7443 108.289C53.9544 108.289 51.1919 108.838 48.6145 109.906C46.037 110.973 43.6951 112.538 41.7224 114.511C39.7497 116.484 38.1848 118.826 37.1172 121.403C36.0496 123.98 35.5001 126.743 35.5001 129.533V353.635C35.5001 359.27 37.7383 364.673 41.7224 368.657C45.7064 372.641 51.11 374.879 56.7443 374.879H201.617C215.191 374.879 228.632 372.206 241.173 367.011C253.713 361.817 265.108 354.203 274.706 344.605C284.305 335.006 291.918 323.612 297.113 311.071C302.307 298.53 304.981 285.089 304.981 271.515V129.533C304.981 126.743 304.432 123.98 303.364 121.403C302.296 118.826 300.732 116.484 298.759 114.511C296.786 112.538 294.444 110.973 291.867 109.906C289.289 108.838 286.527 108.289 283.737 108.289H56.7443Z" fill="white"/>
<path d="M233.696 176.3H106.289C105.12 176.3 103.999 175.836 103.172 175.009C102.346 174.182 101.881 173.061 101.881 171.892C101.881 170.723 102.346 169.602 103.172 168.775C103.999 167.948 105.12 167.484 106.289 167.484H233.696C234.865 167.484 235.986 167.948 236.813 168.775C237.639 169.602 238.104 170.723 238.104 171.892C238.104 173.061 237.639 174.182 236.813 175.009C235.986 175.836 234.865 176.3 233.696 176.3Z" fill="#F2F2F2"/>
<path d="M233.696 270.3H106.289C105.12 270.3 103.999 269.836 103.172 269.009C102.346 268.182 101.881 267.061 101.881 265.892C101.881 264.723 102.346 263.602 103.172 262.775C103.999 261.948 105.12 261.484 106.289 261.484H233.696C234.865 261.484 235.986 261.948 236.813 262.775C237.639 263.602 238.104 264.723 238.104 265.892C238.104 267.061 237.639 268.182 236.813 269.009C235.986 269.836 234.865 270.3 233.696 270.3Z" fill="#F2F2F2"/>
<path d="M285.433 223.331H54.5522C53.3831 223.331 52.2619 222.866 51.4353 222.04C50.6086 221.213 50.1442 220.092 50.1442 218.923C50.1442 217.754 50.6086 216.633 51.4353 215.806C52.2619 214.979 53.3831 214.515 54.5522 214.515H285.433C286.602 214.515 287.723 214.979 288.55 215.806C289.376 216.633 289.841 217.754 289.841 218.923C289.841 220.092 289.376 221.213 288.55 222.04C287.723 222.866 286.602 223.331 285.433 223.331Z" fill="#F2F2F2"/>
<path d="M423.531 210.687L400.531 259.687L489.008 250.726L470.539 203.687L423.531 210.687Z" fill="#A0616A"/>
<path d="M444.101 492.32L435.712 492.249L431.999 459.138L444.379 459.243L444.101 492.32Z" fill="#A0616A"/>
<path d="M417.231 505.659C417.223 506.654 417.611 507.61 418.308 508.32C419.005 509.029 419.955 509.433 420.949 509.442L437.628 509.582L440.548 503.663L441.62 509.612L447.913 509.669L446.324 488.452L444.135 488.307L435.204 487.691L432.323 487.498L432.272 493.501L418.874 502.588C418.372 502.929 417.96 503.386 417.674 503.921C417.388 504.456 417.236 505.053 417.231 505.659Z" fill="#2F2E41"/>
<path d="M351.266 492.358L343.268 489.825L349.447 457.085L361.251 460.822L351.266 492.358Z" fill="#A0616A"/>
<path d="M321.663 497.214C321.363 498.162 321.452 499.19 321.91 500.073C322.368 500.956 323.158 501.621 324.105 501.922L340.007 506.956L344.537 502.156L343.814 508.158L349.813 510.061L354.528 489.314L352.477 488.532L344.122 485.319L341.425 484.288L339.612 490.011L324.136 494.761C323.556 494.939 323.028 495.256 322.597 495.683C322.166 496.11 321.846 496.635 321.663 497.214Z" fill="#2F2E41"/>
<path d="M484.978 236.946L404.531 251.687C404.531 251.687 391.628 261.339 395.08 264.796C398.531 268.252 399.067 267.717 396.799 269.985C394.531 272.253 389.628 275.284 389.58 277.268C389.531 279.252 353.531 368.252 353.531 368.252C353.531 368.252 357.531 366.252 354.531 369.252C351.531 372.252 351.531 374.731 351.531 374.731L337.531 469.252L360.268 470.591L382.531 384.418L432.191 303.914C432.191 303.914 437.118 375.703 437.325 380.478C437.531 385.252 440.531 379.252 437.531 385.252C434.531 391.252 432.531 387.252 434.531 391.252C436.531 395.252 427.327 476.687 427.327 476.687H448.08L492.59 307.896C492.59 307.896 508.426 259.64 484.978 236.946Z" fill="#2F2E41"/>
<path d="M461.28 101.935L429.055 98.5862L420.706 109.425L410.98 114.606C406.864 116.798 403.466 120.129 401.194 124.201C398.921 128.274 397.87 132.914 398.165 137.568L409.531 203.687C409.531 203.687 399.93 225.306 406.531 230.687C413.132 236.068 401.428 249.394 415.531 242.687C429.635 235.98 490.531 243.687 490.531 243.687L477.531 206.687L487.243 170.33L488.312 139.844C488.511 134.148 486.821 128.545 483.504 123.909C480.186 119.274 475.429 115.866 469.972 114.217L468.614 113.807L461.28 101.935Z" fill="#F9A826"/>
<path d="M505.644 77.2302C505.855 86.3132 502.461 95.1082 497.584 102.833C496.135 98.3234 493.531 94.219 490.814 90.3063C492.183 98.7705 490.725 107.45 486.664 115.002C486.521 115.104 486.373 115.199 486.22 115.287C482.245 117.678 477.206 118.646 472.906 116.919C481.79 107.343 482.921 91.4754 475.472 80.7336C473.363 77.6856 470.636 74.9899 469.33 71.5212C467.268 65.9867 469.25 59.893 470.501 54.1227C471.67 48.7523 471.875 42.3614 468.272 38.4256C468.657 37.8756 469.181 37.4378 469.79 37.157C470.4 36.8763 471.074 36.7627 471.742 36.8279C473.963 37.1417 475.58 39.0725 476.61 41.0612C477.64 43.0498 478.319 45.2539 479.754 46.9715C482.412 50.1865 486.938 50.9466 490.753 52.641C499.991 56.7556 505.423 67.1233 505.644 77.2302Z" fill="#2F2E41"/>
<path d="M267.651 509.658C267.65 509.815 267.681 509.97 267.741 510.114C267.8 510.259 267.888 510.39 267.998 510.501C268.109 510.611 268.24 510.699 268.385 510.759C268.53 510.818 268.685 510.849 268.841 510.848H522.131C522.447 510.848 522.749 510.723 522.972 510.5C523.196 510.277 523.321 509.974 523.321 509.658C523.321 509.343 523.196 509.04 522.972 508.817C522.749 508.594 522.447 508.468 522.131 508.468H268.841C268.685 508.468 268.53 508.498 268.385 508.558C268.24 508.618 268.109 508.705 267.998 508.816C267.888 508.926 267.8 509.058 267.741 509.202C267.681 509.347 267.65 509.502 267.651 509.658Z" fill="#CCCCCC"/>
<path d="M507.638 287.748C512.609 287.748 516.638 283.718 516.638 278.748C516.638 273.777 512.609 269.748 507.638 269.748C502.668 269.748 498.638 273.777 498.638 278.748C498.638 283.718 502.668 287.748 507.638 287.748Z" fill="#F9A826"/>
<path d="M427.886 72.0369C428.414 70.1893 424.776 81.4832 426.531 81.6871C434.528 82.6045 445.505 87.3803 451.075 89.6083C451.326 89.5791 451.577 89.55 451.82 89.5136C452.417 89.4481 453 89.3534 453.576 89.2442C466.544 86.7905 471.531 66.8691 471.531 66.6871C471.531 65.7915 469.382 41.1941 465.996 40.8301C465.107 40.7336 464.213 40.685 463.318 40.6845H454.916C453.177 40.3098 451.415 40.0544 449.641 39.92H449.627C432.711 38.6312 419.374 48.9412 420.62 61.4866C420.628 61.5011 420.643 61.5157 420.65 61.5303C421.011 62.0691 421.329 62.5788 421.609 63.0666C421.882 63.5253 422.111 63.9621 422.31 64.3772C423.852 67.5809 419.888 71.6121 422.516 72.3646C426.011 73.3653 413.324 106.258 427.158 106.258C420.429 108.171 426.43 77.1336 427.886 72.0369Z" fill="#2F2E41"/>
<path d="M442.986 91.337C453.973 91.337 462.88 82.4303 462.88 71.4434C462.88 60.4565 453.973 51.5499 442.986 51.5499C431.999 51.5499 423.093 60.4565 423.093 71.4434C423.093 82.4303 431.999 91.337 442.986 91.337Z" fill="#A0616A"/>
<path d="M420.62 62.5714C420.952 62.7462 421.277 62.9063 421.609 63.0665C421.956 63.234 422.302 63.4015 422.649 63.5544C429.311 66.576 434.733 66.9109 438.023 62.5714C438.111 60.288 438.624 58.0411 439.535 55.9456C439.374 58.2873 439.991 60.6167 441.291 62.5714H447.915C454.739 67.1002 458.243 67.5735 453.507 82.4415C452.186 86.5845 446.936 110.692 449.001 114.267C449.599 114.202 455.956 87.7963 456.531 87.6871C469.5 85.2334 477.74 63.8674 476.685 62.6588C476.69 59.2217 475.9 55.83 474.376 52.7492C472.448 48.846 469.443 45.5765 465.716 43.3275C463.494 42.2502 461.178 41.38 458.796 40.7281C458.737 40.7135 458.685 40.6989 458.626 40.6844C457.896 40.4878 457.151 40.3058 456.406 40.1529C454.867 39.8279 453.31 39.5921 451.744 39.4466C451.633 39.4393 451.522 39.432 451.419 39.432C450.794 39.4335 450.18 39.6019 449.641 39.9199C449.634 39.9199 449.634 39.9272 449.627 39.9272C449.242 40.1521 448.906 40.4516 448.638 40.8082C448.167 41.4081 447.912 42.1496 447.915 42.9124H440.538C440.265 42.9124 439.992 42.9197 439.719 42.9342C434.796 43.1025 430.112 45.1019 426.585 48.5414C423.058 51.9808 420.942 56.6125 420.65 61.5302C420.628 61.8797 420.62 62.2219 420.62 62.5714Z" fill="#2F2E41"/>
<path d="M464.117 56.212C471.355 56.212 477.223 50.3442 477.223 43.106C477.223 35.8678 471.355 30 464.117 30C456.878 30 451.011 35.8678 451.011 43.106C451.011 50.3442 456.878 56.212 464.117 56.212Z" fill="#2F2E41"/>
<path d="M507.739 282.459C508.379 281.45 508.792 280.315 508.95 279.131C509.107 277.947 509.006 276.743 508.652 275.602C508.299 274.461 507.702 273.411 506.902 272.524C506.103 271.636 505.121 270.933 504.023 270.463L504.088 229.361L492.723 226.548L493.003 275.366C492.349 277.272 492.417 279.353 493.194 281.213C493.972 283.073 495.404 284.583 497.221 285.458C499.037 286.332 501.111 286.51 503.05 285.957C504.989 285.404 506.657 284.16 507.739 282.459Z" fill="#A0616A"/>
<path d="M451.463 131.477L469.148 119.459C469.973 118.898 470.906 118.516 471.887 118.337C472.869 118.159 473.877 118.187 474.846 118.421C475.816 118.655 476.726 119.089 477.518 119.695C478.31 120.301 478.967 121.067 479.446 121.942L509.849 177.5L509.966 258.811L490.984 257.621L483.191 190.491L451.463 131.477Z" fill="#F9A826"/>
<path d="M315.646 315.878H126.646C122.535 315.878 118.592 317.511 115.685 320.417C112.779 323.324 111.146 327.267 111.146 331.378C111.146 335.488 112.779 339.431 115.685 342.338C118.592 345.245 122.535 346.878 126.646 346.878H315.646C319.756 346.878 323.699 345.245 326.606 342.338C329.513 339.431 331.146 335.488 331.146 331.378C331.146 327.267 329.513 323.324 326.606 320.417C323.699 317.511 319.756 315.878 315.646 315.878Z" fill="white"/>
<path d="M315.646 347.878H126.646C122.269 347.878 118.073 346.139 114.978 343.045C111.884 339.95 110.146 335.754 110.146 331.378C110.146 327.001 111.884 322.805 114.978 319.71C118.073 316.616 122.269 314.878 126.646 314.878H315.646C320.022 314.878 324.218 316.616 327.313 319.71C330.407 322.805 332.146 327.001 332.146 331.378C332.146 335.754 330.407 339.95 327.313 343.045C324.218 346.139 320.022 347.878 315.646 347.878ZM126.646 316.878C122.8 316.878 119.112 318.405 116.393 321.125C113.673 323.844 112.146 327.532 112.146 331.378C112.146 335.223 113.673 338.911 116.393 341.631C119.112 344.35 122.8 345.878 126.646 345.878H315.646C319.491 345.878 323.179 344.35 325.899 341.631C328.618 338.911 330.146 335.223 330.146 331.378C330.146 327.532 328.618 323.844 325.899 321.125C323.179 318.405 319.491 316.878 315.646 316.878H126.646Z" fill="#F9A826"/>
<path d="M326.79 383.52H243.384C242.215 383.52 241.093 383.056 240.267 382.229C239.44 381.403 238.976 380.281 238.976 379.112C238.976 377.943 239.44 376.822 240.267 375.995C241.093 375.169 242.215 374.704 243.384 374.704H326.79C327.959 374.704 329.08 375.169 329.907 375.995C330.734 376.822 331.198 377.943 331.198 379.112C331.198 380.281 330.734 381.403 329.907 382.229C329.08 383.056 327.959 383.52 326.79 383.52Z" fill="#F9A826"/>
</g>
<defs>
<filter id="filter0_d_81_10" x="0" y="0" width="553.461" height="540.848" filterUnits="userSpaceOnUse" color-interpolation-filters="sRGB">
<feFlood flood-opacity="0" result="BackgroundImageFix"/>
<feColorMatrix in="SourceAlpha" type="matrix" values="0 0 0 0 0 0 0 0 0 0 0 0 0 0 0 0 0 0 127 0" result="hardAlpha"/>
<feOffset/>
<feGaussianBlur stdDeviation="15"/>
<feComposite in2="hardAlpha" operator="out"/>
<feColorMatrix type="matrix" values="0 0 0 0 0 0 0 0 0 0 0 0 0 0 0 0 0 0 0.25 0"/>
<feBlend mode="normal" in2="BackgroundImageFix" result="effect1_dropShadow_81_10"/>
<feBlend mode="normal" in="SourceGraphic" in2="effect1_dropShadow_81_10" result="shape"/>
</filter>
<clipPath id="clip0_81_10">
<rect width="493.461" height="480.848" fill="white" transform="translate(30 30)"/>
</clipPath>
</defs>
</svg>
